<?xml version="1.0" encoding="UTF-8"?>
<svg width="699px" height="323px" viewBox="0 0 699 323" version="1.1" xmlns="http://www.w3.org/2000/svg" xmlns:xlink="http://www.w3.org/1999/xlink">
    <!-- Generator: Sketch 52.6 (67491) - http://www.bohemiancoding.com/sketch -->
    <title>rocketspaths</title>
    <desc>Created with Sketch.</desc>
    <g id="Page-1" stroke="none" stroke-width="1" fill="none" fill-rule="evenodd">
        <g id="rocketspaths" transform="translate(-78.000000, -6.000000)">
            <path d="M571.700416,210.364295 C397.796806,328.344403 65.3983475,261.510755 65.3983475,261.510755" id="Path_364" stroke="#4CAFDE" stroke-width="5.00059246" transform="translate(318.549382, 245.365764) rotate(-15.008914) translate(-318.549382, -245.365764) "></path>
            <path d="M511.90049,71.1518958 L507.223942,71.1518958 L506.875379,63.2801906 C506.778556,61.4018161 506.730145,59.7267959 506.730145,58.2550798 C506.730145,57.1319281 506.759191,56.0668864 506.817285,55.0599227 L503.709269,69.0314734 L499.207002,69.0314734 L495.895657,55.0599227 C496.011846,56.7446504 496.069939,58.3325307 496.069939,59.8236115 C496.069939,60.9467632 496.040892,62.1183092 495.982798,63.3382843 L495.634235,71.1518958 L490.986734,71.1518958 L492.497172,51.022406 L498.509877,51.022406 L501.530752,64.6744409 L504.3483,51.022406 L510.390052,51.022406 L511.90049,71.1518958 Z M519.452679,71.1518958 L514.863272,71.1518958 L514.863272,55.728001 L519.452679,55.728001 L519.452679,71.1518958 Z M517.128929,47.5948738 C517.922881,47.5948738 518.576429,47.8417699 519.089593,48.3355693 C519.602757,48.8293688 519.859336,49.4538705 519.859336,50.2090933 C519.859336,50.964316 519.602757,51.5888177 519.089593,52.0826172 C518.576429,52.5764167 517.922881,52.8233127 517.128929,52.8233127 C516.334977,52.8233127 515.686269,52.5764167 515.182787,52.0826172 C514.679306,51.5888177 514.427568,50.964316 514.427568,50.2090933 C514.427568,49.4538705 514.679306,48.8293688 515.182787,48.3355693 C515.686269,47.8417699 516.334977,47.5948738 517.128929,47.5948738 Z M529.735276,55.234204 C530.800333,55.234204 531.758871,55.3891192 532.610917,55.6989541 C533.462963,56.0087891 534.266586,56.4832168 535.021808,57.1222514 L533.04662,59.8526584 C532.078386,59.1168003 531.100484,58.7488768 530.112885,58.7488768 C529.086557,58.7488768 528.311981,59.1264825 527.789135,59.8817053 C527.266288,60.636928 527.004869,61.8568849 527.004869,63.5416125 C527.004869,65.1682461 527.266288,66.3204276 527.789135,66.9981916 C528.311981,67.6759556 529.067193,68.0148325 530.054791,68.0148325 C530.577638,68.0148325 531.052065,67.9325337 531.478089,67.767934 C531.904112,67.6033342 532.417268,67.3370737 533.017574,66.9691447 L535.021808,69.8157392 C533.491998,71.0357144 531.758885,71.6456928 529.822416,71.6456928 C528.253877,71.6456928 526.898369,71.311657 525.755853,70.6435754 C524.613336,69.9754937 523.732256,69.0363206 523.112586,67.8260277 C522.492917,66.6157349 522.183086,65.197293 522.183086,63.5706594 C522.183086,61.9440258 522.492917,60.5013784 523.112586,59.2426738 C523.732256,57.9839693 524.613336,57.0012263 525.755853,56.2944152 C526.898369,55.5876042 528.224831,55.234204 529.735276,55.234204 Z M545.333452,55.2922978 C545.895028,55.2922978 546.408187,55.3600731 546.872937,55.4956259 L546.146765,59.939799 C545.565827,59.8042462 545.101077,59.7364708 544.752514,59.7364708 C543.861737,59.7364708 543.174306,60.0463011 542.690186,60.6659711 C542.206065,61.285641 541.828464,62.2151319 541.557357,63.4544719 L541.557357,71.1518958 L536.96795,71.1518958 L536.96795,55.728001 L540.976419,55.728001 L541.354029,58.6907831 C541.702592,57.6257254 542.230274,56.7930563 542.937084,56.1927511 C543.643895,55.5924459 544.442675,55.2922978 545.333452,55.2922978 Z M555.006064,55.234204 C557.368556,55.234204 559.217853,55.9555277 560.554018,57.3981968 C561.890184,58.8408659 562.558253,60.859604 562.558253,63.4544719 C562.558253,65.1004701 562.253261,66.5382765 561.643277,67.767934 C561.033292,68.9975914 560.161895,69.9512879 559.029057,70.6290519 C557.89622,71.3068159 556.555243,71.6456928 555.006064,71.6456928 C552.662934,71.6456928 550.818475,70.9243691 549.472633,69.4817 C548.126791,68.039031 547.453874,66.0202928 547.453874,63.425425 C547.453874,61.7794267 547.758867,60.3416203 548.368851,59.1119629 C548.978836,57.8823054 549.850233,56.9286089 550.983071,56.2508449 C552.115908,55.5730809 553.456885,55.234204 555.006064,55.234204 Z M555.006064,58.6036424 C554.076555,58.6036424 553.379438,58.9957714 552.914688,59.7800412 C552.449938,60.5643109 552.217563,61.7794267 552.217563,63.425425 C552.217563,65.1101526 552.445091,66.3397917 552.900165,67.1143791 C553.355239,67.8889665 554.057193,68.2762544 555.006064,68.2762544 C555.935573,68.2762544 556.632689,67.8841254 557.097439,67.0998557 C557.56219,66.3155859 557.794565,65.1004701 557.794565,63.4544719 C557.794565,61.7697442 557.567037,60.5401051 557.111963,59.7655177 C556.656889,58.9909303 555.954935,58.6036424 555.006064,58.6036424 Z M574.322241,55.234204 C575.658407,55.234204 576.704085,55.6408563 577.459304,56.4541731 C578.214523,57.2674899 578.592133,58.4099892 578.592133,59.8817053 L578.592133,71.1518958 L574.002725,71.1518958 L574.002725,60.6659711 C574.002725,59.8913837 573.8817,59.3540217 573.639639,59.0538691 C573.397579,58.7537165 573.034502,58.6036424 572.550381,58.6036424 C571.620872,58.6036424 570.730113,59.271714 569.878068,60.6078773 L569.878068,71.1518958 L565.28866,71.1518958 L565.28866,55.728001 L569.29713,55.728001 L569.616646,57.5579546 C570.29441,56.7833672 571.015734,56.2024354 571.780639,55.8151417 C572.545543,55.427848 573.392732,55.234204 574.322241,55.234204 Z M594.306496,66.6786758 C594.306496,67.2596164 594.388799,67.6856331 594.553395,67.9567387 C594.717991,68.2278443 594.984251,68.4311704 595.352184,68.5667232 L594.393637,71.5585522 C593.444766,71.4810934 592.675033,71.2777673 592.08441,70.9485676 C591.493787,70.619368 591.024199,70.0868471 590.675636,69.3509891 C589.668671,70.8807993 588.119519,71.6456928 586.028135,71.6456928 C584.498326,71.6456928 583.278366,71.2003117 582.368228,70.3095362 C581.458089,69.4187607 581.003024,68.256897 581.003024,66.8239103 C581.003024,65.1391826 581.622685,63.8514503 582.862025,62.9606748 C584.101364,62.0698993 585.892568,61.6245182 588.235698,61.6245182 L589.80423,61.6245182 L589.80423,60.9564399 C589.80423,60.0462997 589.610587,59.421798 589.223292,59.082916 C588.835997,58.744034 588.158243,58.5745955 587.19001,58.5745955 C586.686528,58.5745955 586.076552,58.647212 585.360056,58.7924471 C584.643561,58.9376823 583.907712,59.1361674 583.152493,59.3879082 L582.106806,56.3670324 C583.075038,55.9991034 584.067461,55.7183197 585.084111,55.5246728 C586.100761,55.331026 587.044776,55.234204 587.916182,55.234204 C590.123754,55.234204 591.740685,55.6892673 592.767012,56.5994075 C593.793338,57.5095477 594.306496,58.8747375 594.306496,60.695018 L594.306496,66.6786758 Z M587.364291,68.3633951 C587.867774,68.3633951 588.327677,68.2375265 588.744018,67.9857856 C589.16036,67.7340447 589.513761,67.3758034 589.80423,66.9110509 L589.80423,64.151597 L588.671401,64.151597 C587.625704,64.151597 586.846295,64.3355588 586.333127,64.7034878 C585.819959,65.0714169 585.563385,65.6426665 585.563385,66.4172539 C585.563385,67.0369239 585.723142,67.5161926 586.042658,67.8550746 C586.362174,68.1939566 586.802715,68.3633951 587.364291,68.3633951 Z M610.979407,71.1518958 L606.999984,71.1518958 L606.796656,69.2057547 C605.673504,70.8323883 604.114667,71.6456928 602.120108,71.6456928 C600.706487,71.6456928 599.636599,71.2196762 598.910427,70.36763 C598.184255,69.5155838 597.821169,68.3246736 597.821169,66.7948634 L597.821169,55.728001 L602.410577,55.728001 L602.410577,66.2139257 C602.410577,66.9691485 602.531602,67.4968282 602.773663,67.7969808 C603.015723,68.0971334 603.388485,68.2472075 603.891968,68.2472075 C604.8602,68.2472075 605.692874,67.6469113 606.39,66.4463008 L606.39,55.728001 L610.979407,55.728001 L610.979407,71.1518958 Z M624.253833,70.4257237 C623.692257,70.8130174 623.038711,71.1131656 622.293168,71.3261771 C621.547625,71.5391886 620.806939,71.6456928 620.071081,71.6456928 C616.701625,71.6263282 615.016924,69.7673462 615.016924,66.0686913 L615.016924,58.9231581 L612.838408,58.9231581 L612.838408,55.728001 L615.016924,55.728001 L615.016924,52.3876095 L619.606331,51.8647656 L619.606331,55.728001 L623.150051,55.728001 L622.656254,58.9231581 L619.606331,58.9231581 L619.606331,66.0105975 C619.606331,66.7270909 619.722519,67.2402474 619.954894,67.5500823 C620.187269,67.8599173 620.555193,68.0148325 621.058676,68.0148325 C621.60089,68.0148325 622.152772,67.8405529 622.714348,67.4919886 L624.253833,70.4257237 Z" id="Micronaut" fill="#231F20" fill-rule="nonzero" transform="translate(557.620284, 59.620283) rotate(-50.000000) translate(-557.620284, -59.620283) "></path>
            <rect id="Rectangle" fill-opacity="0.01" fill="#FFFFFF" fill-rule="nonzero" x="648" y="16" width="129" height="207"></rect>
            <g id="Rocket" transform="translate(598.639271, 92.199774) rotate(40.000000) translate(-598.639271, -92.199774) translate(569.639271, 26.199774)" fill="#000000">
                <g id="Group" transform="translate(29.093608, 66.037855) scale(-1, 1) rotate(-180.000000) translate(-29.093608, -66.037855) translate(0.593608, 0.537855)">
                    <path d="M27.4060951,129.509451 C22.680446,123.274158 20.7848466,120.009326 19.7703005,116.3297 L19.5033146,115.352927 L28.5140863,115.352927 C36.2566752,115.352927 37.5115086,115.379688 37.5115086,115.540253 C37.5115086,115.968428 36.5236611,118.711422 35.8962444,120.036087 C35.2020812,121.494557 34.0273436,123.488245 32.9860989,124.986856 C31.6778683,126.873501 28.6742778,130.874258 28.5541341,130.874258 C28.500737,130.874258 27.9801146,130.258757 27.4060951,129.509451 Z" id="Shape"></path>
                    <path d="M19.1562331,112.51627 C18.0215433,112.128236 17.594366,111.459213 16.4997241,108.354947 C13.1890998,98.9886268 11.2534526,89.3011754 10.6660838,79.2256906 C10.4658444,75.786913 10.585988,67.8790624 10.8663231,64.5740893 C11.6672806,55.5422803 13.6429757,45.7076438 16.2994847,37.5188037 C16.9802986,35.4314523 17.5142702,34.8293317 18.8892472,34.6286248 C19.1829316,34.5884834 23.7617386,34.5349616 29.0614072,34.5215811 L38.6995956,34.5082007 L39.3003137,34.8560926 C40.3549077,35.4715936 40.555147,35.9532901 41.9835212,41.1582882 C48.0574488,63.3698481 48.0841474,84.029275 42.0502677,103.912635 C41.1692144,106.802814 39.727491,110.830332 39.3003137,111.579638 C39.1000743,111.914149 38.766342,112.24866 38.445959,112.409226 C37.9520352,112.663455 37.6450015,112.663455 28.7410242,112.663455 C22.8005896,112.650074 19.4098696,112.596552 19.1562331,112.51627 Z M30.4497335,102.561209 C32.9727496,101.811903 34.961794,99.8182152 35.696005,97.3026891 C35.9763401,96.3526766 35.9763401,94.4794125 35.696005,93.5294 C35.1353348,91.629375 33.6268648,89.7694914 31.9582034,88.8997616 C29.1548523,87.4145308 25.8308787,87.8962273 23.5348006,90.1040028 C21.9061871,91.6695164 21.1853253,93.3019322 21.1853253,95.4160446 C21.1853253,97.5301569 21.9061871,99.1625728 23.5348006,100.728086 C24.4158538,101.571055 25.3369549,102.119654 26.5650897,102.521068 C27.5262387,102.828818 29.461886,102.855579 30.4497335,102.561209 Z" id="Shape" fill-rule="nonzero"></path>
                    <path d="M6.06057826,57.8570995 C4.97928566,56.9873698 3.36402141,55.796509 2.48296819,55.2077689 C-0.253636535,53.3746462 -0.373780157,52.9063301 0.453875905,47.0456896 C1.29488126,41.1315273 3.04363842,27.7243086 3.33732283,25.1017388 C4.20502677,17.1136055 4.21837606,16.95304 4.41861543,17.0868446 C4.79239559,17.3143124 6.71469354,21.6763416 8.07632125,25.369348 C10.5192416,32.0060551 11.9209172,37.6927496 11.9342664,41.0244836 C11.9342664,42.6702799 11.9075679,42.8576063 11.4403427,44.396359 C10.812926,46.4168081 10.1454614,49.4274111 9.0775181,54.9401597 C8.6102929,57.2951203 8.19646487,59.2754281 8.14306771,59.3289499 C8.08967054,59.3824717 7.15522015,58.7268293 6.06057826,57.8570995 Z" id="Shape"></path>
                    <path d="M48.6581669,59.2620476 C48.6314683,59.1683844 48.1775924,56.9338479 47.6703193,54.3112782 C46.5489789,48.5844423 46.0684044,46.5104713 45.4142891,44.3695981 C44.9604132,42.8576063 44.9337146,42.6568995 44.9337146,41.0244836 C44.9470639,37.7061301 46.2686437,32.3138056 48.711564,25.5968158 C50.0865411,21.8235267 52.0622362,17.3276929 52.4493656,17.0868446 C52.6362557,16.9664205 52.6763036,17.274171 53.2636724,22.6932564 C53.7709455,27.3362753 55.3461618,39.5258723 56.4141051,47.0456896 C57.2417612,52.9197106 57.1349669,53.3746462 54.344965,55.2479103 C53.4372132,55.8500309 51.8753461,57.0007502 50.8741492,57.8035777 C48.7382626,59.4895154 48.7382626,59.4895154 48.6581669,59.2620476 Z" id="Shape"></path>
                    <path d="M21.5858041,28.7679843 C20.8115452,28.5806579 20.3710186,28.3130487 19.796999,27.6574063 C19.2630274,27.0552857 18.9559937,26.30598 18.9559937,25.6503376 C18.9559937,25.3024457 22.0797279,14.5980795 22.3066658,14.1966657 C22.4401587,13.942437 22.2532686,13.3938383 24.1622173,19.8030775 C25.0833184,22.9207242 25.7641323,25.4496307 25.7641323,25.7573813 C25.750783,27.6574063 23.5481499,29.2496808 21.5858041,28.7679843 Z" id="Shape"></path>
                    <path d="M34.5613152,26.5869696 C33.1729889,26.0918927 32.1717921,24.8341297 32.1717921,23.5897471 C32.1717921,23.0946702 35.5358135,11.895227 35.6426078,12.0156511 C35.8828951,12.2698798 38.9799307,23.0679092 38.9799307,23.6298885 C38.9799307,25.7038594 36.5770582,27.3095144 34.5613152,26.5869696 Z" id="Shape"></path>
                    <path d="M27.6864302,14.4107531 C27.3126501,14.2368071 26.8187263,13.8621543 26.5917883,13.5811647 C26.164611,13.0593268 25.7641323,12.0959339 25.7641323,11.5874765 C25.7641323,11.3064868 29.0480579,0.160565494 29.1682015,0.0401413734 C29.2082494,1.73472348e-17 29.2616466,1.73472348e-17 29.2749959,0.0267609156 C29.3016945,0.0535218312 30.0893026,2.63595019 31.0104037,5.76697731 C32.5856201,11.0656386 32.6924145,11.4938133 32.5589215,12.042412 C32.305285,13.1663705 31.6244711,14.0361002 30.6366236,14.4776553 C29.8490154,14.8389277 28.5407849,14.8121668 27.6864302,14.4107531 Z" id="Shape"></path>
                </g>
            </g>
        </g>
    </g>
</svg>